<?xml version="1.0" encoding="UTF-8"?>
<svg width="46.0019682px" height="46.0019682px" viewBox="0 0 46.0019682 46.0019682" version="1.1" xmlns="http://www.w3.org/2000/svg" xmlns:xlink="http://www.w3.org/1999/xlink">
    <title>0.图标/一般图标/export</title>
    <defs>
        <linearGradient x1="-40.1481413%" y1="68.2202957%" x2="127.294688%" y2="6.84614624%" id="linearGradient-1">
            <stop stop-color="#AF52DE" offset="0%"></stop>
            <stop stop-color="#2B6DFD" offset="53.2807037%"></stop>
            <stop stop-color="#51D5F4" offset="100%"></stop>
        </linearGradient>
    </defs>
    <g id="Mobile-Next" stroke="none" stroke-width="1" fill="none" fill-rule="evenodd">
        <g id="Adaptive-Design-for-Mobile-Next" transform="translate(-340.351258, -2181.382689)" stroke="url(#linearGradient-1)" stroke-width="2.2911905">
            <g id="编组-31备份-16" transform="translate(292.000000, 829.000000)">
                <g id="编组-38" transform="translate(0.000000, 1314.000000)">
                    <g id="footer备份" transform="translate(0.000000, 6.000000)">
                        <g id="编组" transform="translate(32.000000, 10.000000)">
                            <g transform="translate(1.000000, 0.000000)">
                                <g id="今日关注" transform="translate(1.000000, 13.000000)">
                                    <g id="0.图标/一般图标/关注" transform="translate(17.000516, 11.355905)">
                                        <g id="编组-19备份" transform="translate(0.000000, 0.000000)">
                                            <g id="编组-18备份-7" opacity="0.600000024" transform="translate(20.181391, 20.474195) rotate(-270.000000) translate(-20.181391, -20.474195) translate(5.782040, 5.610348)">
                                                <path d="M14.3991184,14.8660714 C14.3978046,20.6276814 9.90104961,25.2982282 4.35417165,25.2982282 C4.28382264,25.2982282 4.21364253,25.2974769 4.14363837,25.2959817 C4.14647452,19.5338506 8.64302936,14.8638462 14.1895852,14.8638462 C14.2595992,14.8638462 14.3294459,14.8645904 14.3991184,14.8660714 Z M14.3997593,14.866074 C20.0832723,14.9820085 24.6548011,19.6082511 24.6548011,25.2982282 C19.0656119,25.1820353 14.5520443,20.7067791 14.4031446,15.1474427 L14.3997593,14.866074 Z M4.14390101,4.42946431 C9.71497838,4.42946431 14.2485212,8.94918344 14.3956647,14.5813278 L14.398901,14.8284643 L14.4030374,14.5813278 C14.5501809,8.94918344 19.0837237,4.42946431 24.6548011,4.42946431 L24.6511147,4.71198277 C24.5039712,10.3441271 19.9704284,14.8638462 14.399351,14.8638462 C8.73542239,14.8638462 4.14390101,10.1922143 4.14390101,4.42946431 Z" id="形状结合" transform="translate(14.399351, 14.863846) rotate(45.000000) translate(-14.399351, -14.863846) "></path>
                                            </g>
                                            <g id="编组-18" transform="translate(20.363758, 21.020653) rotate(-315.000000) translate(-20.363758, -21.020653) translate(5.964406, 6.156807)">
                                                <path d="M14.3991184,14.8660714 C14.3978046,20.6276814 9.90104961,25.2982282 4.35417165,25.2982282 C4.28382264,25.2982282 4.21364253,25.2974769 4.14363837,25.2959817 C4.14647452,19.5338506 8.64302936,14.8638462 14.1895852,14.8638462 C14.2595992,14.8638462 14.3294459,14.8645904 14.3991184,14.8660714 Z M14.3997593,14.866074 C20.0832723,14.9820085 24.6548011,19.6082511 24.6548011,25.2982282 C19.0656119,25.1820353 14.5520443,20.7067791 14.4031446,15.1474427 L14.3997593,14.866074 Z M4.14390101,4.42946431 C9.71497838,4.42946431 14.2485212,8.94918344 14.3956647,14.5813278 L14.398901,14.8284643 L14.4030374,14.5813278 C14.5501809,8.94918344 19.0837237,4.42946431 24.6548011,4.42946431 L24.6511147,4.71198277 C24.5039712,10.3441271 19.9704284,14.8638462 14.399351,14.8638462 C8.73542239,14.8638462 4.14390101,10.1922143 4.14390101,4.42946431 Z" id="形状结合" transform="translate(14.399351, 14.863846) rotate(45.000000) translate(-14.399351, -14.863846) "></path>
                                            </g>
                                        </g>
                                    </g>
                                </g>
                            </g>
                        </g>
                    </g>
                </g>
            </g>
        </g>
    </g>
</svg>
